<svg width="33" height="32" viewBox="0 0 33 32" fill="none" xmlns="http://www.w3.org/2000/svg">
<path d="M16.4692 0.123291C7.70378 0.123291 0.57251 7.24612 0.57251 16.0005C0.57251 24.7548 7.70378 31.8772 16.4692 31.8772C25.2352 31.8772 32.3669 24.7553 32.3669 16.0005C32.3669 7.24612 25.2352 0.123291 16.4692 0.123291ZM26.93 7.6169C28.7433 9.86431 29.8454 12.7027 29.8962 15.7955C29.2928 15.6716 26.7374 15.1952 23.6839 15.1952C22.6985 15.1952 21.6615 15.2446 20.6218 15.373C20.534 15.1595 20.4462 14.9469 20.354 14.7321C20.0843 14.098 19.7938 13.4687 19.493 12.8488C24.1928 10.9125 26.4598 8.22521 26.93 7.6169ZM16.4692 2.60868C19.8566 2.60868 22.953 3.8672 25.318 5.93992C24.9437 6.45063 22.9133 8.98861 18.3815 10.7008C16.2839 6.86642 13.9879 3.69117 13.4415 2.95406C14.4152 2.72856 15.4287 2.60868 16.4692 2.60868ZM10.7003 3.90998C11.1634 4.54771 13.4629 7.75683 15.6145 11.5605C9.84022 13.0783 4.71259 13.1773 3.47502 13.1773H3.34355C4.23262 9.07997 7.00099 5.6752 10.7003 3.90998ZM3.03873 16.0214C3.03873 15.9109 3.04051 15.8004 3.04408 15.6903C3.12429 15.6912 3.24284 15.6912 3.39659 15.6912C5.06331 15.6912 10.8487 15.5535 16.8106 13.7842C17.1725 14.4919 17.517 15.2103 17.8374 15.9283C17.6868 15.9715 17.5384 16.0147 17.3908 16.0629C10.678 18.2309 6.98851 23.9705 6.42076 24.9086C4.3173 22.5386 3.03873 19.4271 3.03873 16.0214ZM16.4692 29.4333C13.3889 29.4333 10.5461 28.39 8.27778 26.6408C8.66148 25.8886 11.4463 20.8745 18.8027 18.3143C18.8071 18.3125 18.812 18.3107 18.8174 18.3094C20.6619 23.1117 21.4431 27.1422 21.6575 28.3913C20.0612 29.0625 18.308 29.4333 16.4692 29.4333ZM24.0765 27.0691C23.8964 26.0356 23.1727 22.2583 21.5024 17.6512C22.4392 17.5054 23.3505 17.4479 24.2053 17.4479C27.0124 17.4479 29.2081 18.0625 29.7184 18.2185C29.1119 21.8768 27.0173 25.0427 24.0765 27.0691Z" fill="black"/>
</svg>
