<svg width="32" height="21" viewBox="0 0 32 21" fill="none" xmlns="http://www.w3.org/2000/svg">
<path d="M24.4323 5.65176C17.2114 5.65176 17.2021 12.8454 17.2021 12.8824C17.2021 12.8824 16.7074 20.085 24.4323 20.085C24.4323 20.085 30.8746 20.4513 30.8746 15.0723H27.5665C27.5665 15.0723 27.6761 17.0973 24.5423 17.0973C24.5423 17.0973 21.2343 17.3175 21.2343 13.8258H30.9846C30.9846 13.8258 32.0569 5.65176 24.4323 5.65176ZM21.1973 11.3057C21.1973 11.3057 21.6006 8.40987 24.5058 8.40987C27.4199 8.40987 27.374 11.3057 27.374 11.3057H21.1973ZM12.9323 9.45492C12.9323 9.45492 15.8005 9.24413 15.8005 5.87191C15.8005 2.50904 13.4546 0.859253 10.4763 0.859253H0.679626V19.6906H10.4754C10.4754 19.6906 16.4596 19.8742 16.4596 14.1284C16.46 14.1284 16.7167 9.45492 12.9323 9.45492ZM4.99618 4.20384H10.4759C10.4759 4.20384 11.8048 4.20384 11.8048 6.1647C11.8048 8.12555 11.0258 8.40987 10.1367 8.40987H4.99618V4.20384ZM10.2014 16.346H4.99618V11.3057H10.4759C10.4759 11.3057 12.4648 11.2874 12.4554 13.8989C12.4554 16.0986 10.9803 16.3277 10.2014 16.346ZM20.3818 1.96803V4.28673H28.153V1.96803H20.3818Z" fill="black"/>
</svg>
