<svg width="27" height="33" viewBox="0 0 27 33" fill="none" xmlns="http://www.w3.org/2000/svg">
<path d="M9.73384 19.6064C12.0884 19.6022 14.3351 19.3674 16.4781 18.8956C18.619 18.426 20.5018 17.7363 22.1266 16.8351C23.7513 15.9339 24.9804 14.8084 25.8181 13.4587C26.6538 12.109 26.9203 10.533 26.6178 8.73476C26.2222 6.37596 24.9889 4.4868 22.9157 3.06517C20.8424 1.64354 18.1853 0.93695 14.9423 0.941181C12.2407 0.945412 9.9073 1.48064 7.9441 2.54898C5.98089 3.61943 4.40484 5.04741 3.21591 6.82868C2.02699 8.60995 1.22732 10.6345 0.816904 12.9023C0.406493 15.1702 0.402263 17.5036 0.804212 19.9005C1.28867 22.7861 2.21315 25.1428 3.58401 26.9769C4.95275 28.809 6.60708 30.1587 8.54702 31.0154C10.487 31.8743 12.594 32.3038 14.8724 32.2996C16.8018 32.2953 18.7756 31.9843 20.7959 31.3645C22.6808 30.7827 24.5086 29.9534 26.2751 28.8661C26.4803 28.7391 26.5438 28.462 26.4168 28.2589L24.0982 24.5821C23.9798 24.396 23.7365 24.3367 23.5397 24.4383C22.2091 25.1385 20.9038 25.6949 19.626 26.1096C18.234 26.5623 16.9012 26.7886 15.6277 26.7907C13.7745 26.7929 12.2259 26.2428 10.9778 25.1364C9.72961 24.0342 8.8982 22.2254 8.4751 19.7164C8.46663 19.6678 8.46663 19.617 8.46029 19.5662C8.50048 19.5684 8.52799 19.5747 8.56818 19.5747C8.92147 19.598 9.30862 19.6086 9.73384 19.6064ZM8.33547 14.7598C8.47509 13.3276 8.7628 11.9927 9.23668 10.7826C9.74864 9.46885 10.47 8.40897 11.3988 7.60084C12.3232 6.79694 13.4635 6.39077 14.8132 6.38865C16.0106 6.38654 16.9753 6.68059 17.7094 7.25813C18.4434 7.83778 18.8898 8.59725 19.0464 9.53231C19.1902 10.3954 19.0294 11.1634 18.564 11.8382C18.0986 12.5152 17.4089 13.0674 16.4972 13.4989C15.5854 13.9305 14.5488 14.2584 13.3916 14.4869C12.2323 14.7153 11.0349 14.8275 9.80153 14.8296C9.33823 14.8296 8.90032 14.8105 8.48779 14.7746C8.43702 14.7703 8.38835 14.7661 8.33547 14.7598Z" fill="white"/>
</svg>
