<svg width="56" height="57" viewBox="0 0 56 57" fill="none" xmlns="http://www.w3.org/2000/svg">
<g clip-path="url(#clip0_2_103)">
<path d="M40.1181 15.304L5.36134 21.7062C3.07094 22.1266 1.55506 24.324 1.97539 26.6145C2.18973 27.7824 2.8866 28.8057 3.8948 29.4331L15.2478 36.5087L43.2503 15.9696C42.3358 15.341 41.2091 15.1015 40.1181 15.304Z" fill="#FCE82F"/>
<path d="M16.9097 38.7756L20.2497 51.732C20.8371 53.9909 23.1445 55.346 25.4034 54.7587C25.9149 54.6257 26.3969 54.398 26.8244 54.0873C27.3393 53.7096 27.7623 53.2206 28.0619 52.6567L44.6061 21.4241C45.1269 20.4442 45.237 19.2975 44.9122 18.2365L16.9097 38.7756Z" fill="#FCE82F"/>
</g>
<defs>
<clipPath id="clip0_2_103">
<rect y="24.635" width="40" height="40" rx="10" transform="rotate(-36.2591 0 24.635)" fill="white"/>
</clipPath>
</defs>
</svg>
