<svg width="31" height="32" viewBox="0 0 31 32" fill="none" xmlns="http://www.w3.org/2000/svg">
<path d="M30.4545 31.538H26.5768C24.6855 31.538 23.1539 30.0085 23.1496 28.1172L23.1221 12.896C23.156 11.6965 23.0354 10.6345 22.7625 9.72483C22.4875 8.80035 22.094 8.09588 21.563 7.58392C21.032 7.08677 20.3297 6.8308 19.439 6.8308C18.5822 6.8308 17.7593 7.07197 16.9533 7.567C16.1494 8.04722 15.428 8.78343 14.7764 9.7608C14.1248 10.7382 13.6107 11.9715 13.2342 13.4968C12.8407 15.0221 12.6693 16.7864 12.7032 18.8089L12.737 31.0768C12.737 31.3137 12.5466 31.5063 12.3097 31.5063L8.41292 31.5147C6.52376 31.5189 4.98576 29.9915 4.9773 28.1024L4.88845 6.8985L1.00435 5.754C0.858375 5.71169 0.758951 5.5784 0.758951 5.42609L0.744141 2.1026C0.744141 1.87201 0.926078 1.68161 1.15667 1.67315L9.38182 1.37698C10.8902 1.32198 12.1214 2.57437 12.041 4.08062L11.8633 7.4443C11.9479 7.27294 12.0178 7.10158 12.1024 6.94715C13.3357 4.85701 14.8272 3.29788 16.5577 2.30358C18.3051 1.30929 20.0525 0.812134 21.7851 0.812134C23.6002 0.812134 25.1954 1.23947 26.5493 2.09626C27.9032 2.95304 28.9652 4.15255 29.7353 5.69476C30.4884 7.22005 30.848 9.05421 30.8311 11.1951L30.8819 31.1043C30.884 31.3455 30.6915 31.538 30.4545 31.538Z" fill="white"/>
</svg>
