<svg width="40" height="40" viewBox="0 0 40 40" fill="none" xmlns="http://www.w3.org/2000/svg">
<path d="M39.2226 31.8065L34.7882 28.85L30.8462 26.2224C30.0854 25.7162 29.063 25.8822 28.5014 26.6031L26.0621 29.7389C25.5381 30.4194 24.5956 30.6149 23.8442 30.1989C22.189 29.2782 20.2318 28.4114 15.9132 24.0873C11.5947 19.7632 10.7223 17.8115 9.80158 16.1564C9.38557 15.405 9.58112 14.4624 10.2616 13.9385L13.3974 11.4992C14.1183 10.9377 14.2843 9.91526 13.7781 9.15441L11.2313 5.33375L8.19403 0.777866C7.67708 0.00240638 6.64225 -0.230403 5.84304 0.248888L2.34027 2.35027C1.39364 2.908 0.697786 3.80861 0.396852 4.8654C-0.561028 8.35778 -0.75415 16.0618 11.5926 28.4086C23.9393 40.7553 31.6427 40.5615 35.135 39.6036C36.1918 39.3027 37.0924 38.6069 37.6502 37.6602L39.7515 34.1575C40.2309 33.3582 39.9981 32.3234 39.2226 31.8065Z" fill="#FCE82F"/>
<path d="M22.7583 6.20692C29.2302 6.2141 34.4751 11.4589 34.4823 17.9309C34.4823 18.3118 34.791 18.6206 35.1719 18.6206C35.5528 18.6206 35.8616 18.3119 35.8616 17.9309C35.8537 10.6975 29.9918 4.83561 22.7583 4.82764C22.3775 4.82764 22.0687 5.13638 22.0687 5.51732C22.0686 5.89809 22.3773 6.20692 22.7583 6.20692Z" fill="#FCE82F"/>
<path d="M22.7583 10.3448C26.9459 10.3497 30.3394 13.7432 30.3443 17.9308C30.3443 18.3117 30.6531 18.6205 31.034 18.6205C31.4149 18.6205 31.7237 18.3118 31.7237 17.9308C31.718 12.9818 27.7074 8.9711 22.7583 8.96539C22.3774 8.96539 22.0686 9.27414 22.0686 9.65507C22.0686 10.036 22.3773 10.3448 22.7583 10.3448Z" fill="#FCE82F"/>
<path d="M22.7583 14.4826C24.6618 14.4848 26.2042 16.0273 26.2065 17.9308C26.2065 18.3116 26.5153 18.6205 26.8962 18.6205C27.277 18.6205 27.5859 18.3117 27.5859 17.9308C27.5828 15.2659 25.4232 13.1063 22.7583 13.1033C22.3775 13.1033 22.0687 13.412 22.0687 13.793C22.0686 14.1738 22.3773 14.4826 22.7583 14.4826Z" fill="#FCE82F"/>
</svg>
