<svg width="34" height="40" viewBox="0 0 34 40" fill="none" xmlns="http://www.w3.org/2000/svg">
<path d="M27.5929 26.8448C26.789 25.2709 25.7841 23.9529 24.5825 22.8867C24.1361 22.4911 23.6093 22.1928 23.0424 21.9432C24.3815 21.5793 25.6 21.0906 26.662 20.439C28.5004 19.3115 29.8332 17.82 30.6604 15.9647C31.4875 14.1094 31.6949 11.9431 31.2802 9.47006C30.2309 3.21446 25.7312 0.0940634 17.7789 0.104641L12.799 0.110987L0.875925 0.396584C0.641102 0.402931 0.454934 0.59333 0.457049 0.828153L0.482434 4.14318C0.48455 4.2955 0.583982 4.42877 0.729953 4.46896L4.52097 5.56058L4.63732 39.263C4.63732 39.4999 4.82984 39.6903 5.06677 39.6903L12.0967 39.6797C12.3315 39.6797 12.524 39.4893 12.524 39.2524L12.5832 23.5446L14.2926 23.5425C15.4434 23.5044 16.3531 23.5785 17.0216 23.7625C17.6901 23.9508 18.3036 24.3803 18.86 25.0551C19.4164 25.7257 20.0616 26.8681 20.7936 28.478L24.94 37.6404C25.4964 38.8674 26.7191 39.6565 28.0667 39.6543L33.4571 39.6459C33.7765 39.6459 33.9838 39.3074 33.8379 39.0218L31.5573 34.5728L27.5929 26.8448ZM15.3334 17.9787L12.5494 17.9829L12.4394 5.84194L16.9475 5.8356C17.4108 5.8356 17.9461 5.86309 18.5532 5.9181C19.1604 5.97522 19.7845 6.1233 20.4234 6.36659C21.0622 6.60776 21.6355 7.03086 22.1412 7.62956C22.6468 8.22613 22.9937 9.08927 23.182 10.2105C23.4147 11.5983 23.2624 12.8803 22.7272 14.0607C22.1898 15.2412 21.3076 16.189 20.0764 16.9019C18.8452 17.6212 17.2628 17.9766 15.3334 17.9787Z" fill="white"/>
</svg>
