<svg width="181" height="41" viewBox="0 0 181 41" fill="none" xmlns="http://www.w3.org/2000/svg">
<path d="M27.5929 26.8448C26.789 25.2709 25.7841 23.9529 24.5825 22.8867C24.1361 22.4911 23.6093 22.1928 23.0424 21.9432C24.3815 21.5793 25.6 21.0906 26.662 20.439C28.5004 19.3115 29.8332 17.82 30.6604 15.9647C31.4875 14.1094 31.6949 11.9431 31.2802 9.47006C30.2309 3.21446 25.7312 0.0940634 17.7789 0.104641L12.799 0.110987L0.875925 0.396584C0.641102 0.402931 0.454934 0.59333 0.457049 0.828153L0.482434 4.14318C0.48455 4.2955 0.583982 4.42877 0.729953 4.46896L4.52097 5.56057L4.63732 39.263C4.63732 39.4999 4.82984 39.6903 5.06677 39.6903L12.0967 39.6797C12.3315 39.6797 12.524 39.4893 12.524 39.2524L12.5832 23.5446L14.2926 23.5425C15.4434 23.5044 16.3531 23.5785 17.0216 23.7625C17.6901 23.9508 18.3036 24.3803 18.86 25.0551C19.4164 25.7257 20.0616 26.8681 20.7936 28.478L24.94 37.6404C25.4964 38.8674 26.7191 39.6565 28.0667 39.6543L33.4571 39.6459C33.7765 39.6459 33.9838 39.3074 33.8379 39.0218L31.5573 34.5729L27.5929 26.8448ZM15.3334 17.9787L12.5494 17.9829L12.4394 5.84194L16.9475 5.8356C17.4108 5.8356 17.9461 5.86309 18.5532 5.9181C19.1604 5.97522 19.7845 6.1233 20.4234 6.36659C21.0622 6.60776 21.6355 7.03086 22.1412 7.62956C22.6468 8.22613 22.9937 9.08927 23.182 10.2105C23.4147 11.5983 23.2624 12.8803 22.7272 14.0607C22.1898 15.2412 21.3076 16.189 20.0764 16.9019C18.8452 17.6212 17.2628 17.9766 15.3334 17.9787Z" fill="white"/>
<path d="M45.7338 27.6064C48.0884 27.6022 50.3351 27.3674 52.4781 26.8956C54.619 26.426 56.5018 25.7363 58.1266 24.8351C59.7513 23.9339 60.9804 22.8084 61.8181 21.4587C62.6538 20.109 62.9203 18.533 62.6178 16.7348C62.2222 14.376 60.9889 12.4868 58.9157 11.0652C56.8424 9.64354 54.1853 8.93695 50.9422 8.94118C48.2407 8.94541 45.9073 9.48064 43.9441 10.549C41.9809 11.6194 40.4048 13.0474 39.2159 14.8287C38.027 16.6099 37.2273 18.6345 36.8169 20.9023C36.4065 23.1702 36.4023 25.5036 36.8042 27.9005C37.2887 30.7861 38.2132 33.1428 39.584 34.9769C40.9528 36.809 42.6071 38.1587 44.547 39.0154C46.487 39.8743 48.594 40.3038 50.8724 40.2996C52.8018 40.2953 54.7756 39.9843 56.7959 39.3645C58.6808 38.7827 60.5086 37.9534 62.2751 36.8661C62.4803 36.7391 62.5438 36.462 62.4168 36.2589L60.0982 32.5821C59.9798 32.396 59.7365 32.3367 59.5397 32.4383C58.2091 33.1385 56.9038 33.6949 55.626 34.1096C54.234 34.5623 52.9012 34.7886 51.6277 34.7907C49.7745 34.7929 48.2259 34.2428 46.9778 33.1364C45.7296 32.0342 44.8982 30.2254 44.4751 27.7164C44.4666 27.6678 44.4666 27.617 44.4603 27.5662C44.5005 27.5684 44.528 27.5747 44.5682 27.5747C44.9215 27.598 45.3086 27.6086 45.7338 27.6064ZM44.3355 22.7598C44.4751 21.3276 44.7628 19.9927 45.2367 18.7826C45.7486 17.4688 46.47 16.409 47.3988 15.6008C48.3232 14.7969 49.4635 14.3908 50.8132 14.3887C52.0106 14.3865 52.9753 14.6806 53.7094 15.2581C54.4434 15.8378 54.8898 16.5973 55.0464 17.5323C55.1902 18.3954 55.0294 19.1634 54.564 19.8382C54.0986 20.5152 53.4089 21.0674 52.4972 21.4989C51.5854 21.9305 50.5488 22.2584 49.3916 22.4869C48.2323 22.7153 47.0349 22.8275 45.8015 22.8296C45.3382 22.8296 44.9003 22.8105 44.4878 22.7746C44.437 22.7703 44.3884 22.7661 44.3355 22.7598Z" fill="white"/>
<path d="M95.6176 9.93758L85.3023 39.4047C85.2431 39.576 85.0802 39.6903 84.8983 39.6924L80.3055 39.703C78.5369 39.7072 76.9482 38.6241 76.305 36.9761L67.5362 14.486L65.0716 13.8809C64.9193 13.8428 64.8114 13.7074 64.8114 13.5509L64.7839 10.2359C64.7818 10.0053 64.9616 9.81488 65.1901 9.8043L71.8582 9.46794C73.1 9.40447 74.2276 10.1872 74.6084 11.3698L81.2998 32.2881L88.0483 9.9122C88.1012 9.73661 88.2598 9.61391 88.4439 9.60756L95.203 9.36639C95.4992 9.35793 95.7171 9.6541 95.6176 9.93758Z" fill="white"/>
<path d="M105.139 27.5281C107.494 27.5239 109.743 27.2869 111.884 26.8152C114.025 26.3455 115.907 25.658 117.532 24.7547C119.157 23.8534 120.386 22.7301 121.224 21.3783C122.059 20.0286 122.326 18.4546 122.025 16.6564C121.63 14.2976 120.397 12.4085 118.323 10.9868C116.25 9.5652 113.593 8.85651 110.35 8.86074C107.648 8.86497 105.315 9.40019 103.352 10.4706C101.389 11.539 99.8125 12.967 98.6236 14.7503C97.4347 16.5316 96.635 18.5562 96.2246 20.8219C95.8142 23.0876 95.8078 25.4232 96.2098 27.8201C96.6942 30.7056 97.6187 33.0623 98.9896 34.8986C100.358 36.7306 102.013 38.0803 103.953 38.9371C105.893 39.7981 108 40.2255 110.278 40.2212C112.207 40.2191 114.181 39.906 116.201 39.2862C118.086 38.7065 119.914 37.8751 121.681 36.7877C121.886 36.6608 121.949 36.3837 121.822 36.1806L119.504 32.5038C119.385 32.3176 119.142 32.2584 118.945 32.36C117.615 33.0602 116.309 33.6166 115.032 34.0333C113.64 34.4861 112.307 34.7103 111.033 34.7124C109.18 34.7145 107.629 34.1645 106.383 33.0602C105.137 31.958 104.304 30.1514 103.881 27.6423C103.872 27.5937 103.872 27.5429 103.866 27.4921C103.906 27.4943 103.934 27.5006 103.974 27.5027C104.329 27.5175 104.714 27.5281 105.139 27.5281ZM103.743 22.6793C103.883 21.2471 104.17 19.9122 104.646 18.7021C105.158 17.3884 105.88 16.3285 106.806 15.5225C107.731 14.7186 108.871 14.3103 110.221 14.3103C111.418 14.3082 112.385 14.6001 113.117 15.1798C113.851 15.7595 114.297 16.5189 114.454 17.454C114.6 18.3171 114.437 19.0829 113.972 19.7578C113.506 20.4348 112.817 20.9869 111.905 21.4185C110.993 21.85 109.954 22.1779 108.797 22.4064C107.638 22.6349 106.44 22.747 105.207 22.7491C104.744 22.7491 104.306 22.7301 103.895 22.6941C103.845 22.6899 103.796 22.6857 103.743 22.6793Z" fill="white"/>
<path d="M154.455 39.538H150.577C148.686 39.538 147.154 38.0085 147.15 36.1172L147.122 20.896C147.156 19.6965 147.035 18.6345 146.762 17.7248C146.487 16.8003 146.094 16.0959 145.563 15.5839C145.032 15.0868 144.33 14.8308 143.439 14.8308C142.582 14.8308 141.759 15.072 140.953 15.567C140.149 16.0472 139.428 16.7834 138.776 17.7608C138.125 18.7382 137.611 19.9715 137.234 21.4968C136.841 23.0221 136.669 24.7864 136.703 26.8089L136.737 39.0768C136.737 39.3137 136.547 39.5063 136.31 39.5063L132.413 39.5147C130.524 39.5189 128.986 37.9915 128.977 36.1024L128.888 14.8985L125.004 13.754C124.858 13.7117 124.759 13.5784 124.759 13.4261L124.744 10.1026C124.744 9.87201 124.926 9.68161 125.157 9.67315L133.382 9.37698C134.89 9.32198 136.121 10.5744 136.041 12.0806L135.863 15.4443C135.948 15.2729 136.018 15.1016 136.102 14.9471C137.336 12.857 138.827 11.2979 140.558 10.3036C142.305 9.30929 144.053 8.81213 145.785 8.81213C147.6 8.81213 149.195 9.23947 150.549 10.0963C151.903 10.953 152.965 12.1525 153.735 13.6948C154.488 15.2201 154.848 17.0542 154.831 19.1951L154.882 39.1043C154.884 39.3455 154.691 39.538 154.455 39.538Z" fill="white"/>
<path d="M178.184 33.5742C178.083 33.3733 177.837 33.2929 177.63 33.3796C177.012 33.6419 176.42 33.862 175.855 34.0333C175.174 34.2385 174.565 34.3443 174.025 34.3443C173.215 34.3464 172.561 34.1306 172.064 33.7012C171.567 33.2696 171.237 32.5672 171.074 31.592C171.03 31.3318 170.996 31.08 170.977 30.8346C170.956 30.5914 170.951 30.3925 170.964 30.2444L170.901 14.6213L178.252 14.6107C178.44 14.6107 178.595 14.4563 178.595 14.268L178.597 9.78096C178.597 9.59056 178.442 9.43825 178.254 9.43825L170.894 9.44882L170.846 2.0318C170.844 1.76736 170.604 1.56638 170.342 1.61293L163.49 2.82301C163.285 2.85897 163.137 3.03667 163.137 3.24611L163.143 9.44459L158.942 10.4156C158.785 10.4516 158.675 10.5891 158.675 10.7499L158.677 14.2955C158.677 14.4859 158.832 14.6382 159.02 14.6382L163.143 14.6319L163.213 30.6485C163.249 31.0991 163.278 31.501 163.3 31.8564C163.321 32.2118 163.363 32.5799 163.426 32.9523C163.847 35.4613 164.848 37.2891 166.428 38.4294C168.009 39.5696 169.919 40.1387 172.159 40.1366C173.395 40.1345 174.725 39.9631 176.156 39.6246C177.448 39.32 178.739 38.8736 180.033 38.294C180.258 38.1924 180.357 37.9174 180.247 37.6974L178.184 33.5742Z" fill="white"/>
</svg>
