<svg width="42" height="38" viewBox="0 0 42 38" fill="none" xmlns="http://www.w3.org/2000/svg">
<path d="M41.6841 20.4528L32.4816 36.3911C32.0606 37.1189 31.2842 37.5674 30.4422 37.5674H25.6019C24.3665 37.5674 23.3658 36.5667 23.3658 35.3313V28.1596L29.1708 31.5127C29.833 31.8957 30.6792 31.6672 31.0621 31.0071L31.8046 29.7209C32.1875 29.0587 31.959 28.2125 31.2969 27.8296L22.1155 22.5302C21.5718 22.2171 20.9033 22.2171 20.3597 22.5302L11.1783 27.8296C10.5161 28.2125 10.2898 29.0587 10.6706 29.7209L11.4131 31.0071C11.796 31.6693 12.6422 31.8957 13.3044 31.5127L19.1094 28.1596V35.3334C19.1094 36.5688 18.1087 37.5695 16.8733 37.5695H12.0351C11.1931 37.5695 10.4167 37.121 9.99571 36.3933L0.793189 20.4549C0.3722 19.7272 0.3722 18.8302 0.793189 18.1003L3.21333 13.9095C3.83107 12.839 5.19982 12.473 6.26816 13.0908L12.4772 16.6766L6.67221 20.0276C6.01005 20.4105 5.78371 21.2567 6.1645 21.9188L6.90705 23.2051C7.28996 23.8672 8.13616 24.0936 8.79832 23.7107L17.9797 18.4092C18.5234 18.0961 18.8576 17.5164 18.8576 16.8881V6.28726C18.8576 5.52355 18.2378 4.9037 17.4741 4.9037H15.989C15.2253 4.9037 14.6054 5.52355 14.6054 6.28726V12.9913L8.39636 9.40554C7.32591 8.7878 6.95993 7.41906 7.57766 6.35072L9.99783 2.15987C10.4188 1.43213 11.1952 0.983643 12.0372 0.983643H30.4422C31.2842 0.983643 32.0606 1.43213 32.4816 2.15987L34.9017 6.35072C35.5195 7.42118 35.1535 8.7878 34.083 9.40554L27.874 12.9913V6.28726C27.874 5.52355 27.2541 4.9037 26.4904 4.9037H25.0074C24.2437 4.9037 23.6239 5.52355 23.6239 6.28726V16.8881C23.6239 17.5143 23.9581 18.094 24.5018 18.4092L33.6811 23.7107C34.3432 24.0936 35.1895 23.8651 35.5724 23.2051L36.3149 21.9188C36.6978 21.2567 36.4694 20.4105 35.8072 20.0276L30.0022 16.6766L36.2112 13.0908C37.2817 12.473 38.6483 12.839 39.2661 13.9095L41.6862 18.1003C42.1051 18.8281 42.1051 19.7251 41.6841 20.4528Z" fill="#FCE82F"/>
</svg>
