<svg width="23" height="40" viewBox="0 0 23 40" fill="none" xmlns="http://www.w3.org/2000/svg">
<path d="M20.1844 32.5742C20.0828 32.3733 19.8374 32.2929 19.6301 32.3796C19.0124 32.6419 18.42 32.8619 17.8552 33.0333C17.174 33.2385 16.5647 33.3443 16.0253 33.3443C15.215 33.3464 14.5613 33.1306 14.0642 32.7012C13.567 32.2696 13.237 31.5672 13.0741 30.592C13.0297 30.3318 12.9958 30.08 12.9768 29.8346C12.9556 29.5914 12.9514 29.3925 12.9641 29.2444L12.9006 13.6213L20.2521 13.6107C20.4403 13.6107 20.5948 13.4563 20.5948 13.268L20.5969 8.78096C20.5969 8.59056 20.4425 8.43825 20.2542 8.43825L12.8943 8.44882L12.8456 1.0318C12.8435 0.767362 12.6045 0.566385 12.3421 0.612926L5.48995 1.82301C5.28474 1.85897 5.13667 2.03667 5.13667 2.24611L5.143 8.44459L0.941576 9.41562C0.785028 9.45158 0.675018 9.58909 0.675018 9.74987L0.677136 13.2955C0.677136 13.4859 0.831568 13.6382 1.01985 13.6382L5.143 13.6319L5.21283 29.6485C5.24879 30.0991 5.27842 30.501 5.29957 30.8564C5.32073 31.2118 5.36303 31.5799 5.4265 31.9523C5.84749 34.4613 6.84812 36.2891 8.42841 37.4294C10.0087 38.5696 11.919 39.1387 14.1594 39.1366C15.3948 39.1345 16.7255 38.9631 18.1556 38.6246C19.4482 38.32 20.7386 37.8736 22.0333 37.294C22.2576 37.1924 22.357 36.9174 22.247 36.6974L20.1844 32.5742Z" fill="white"/>
</svg>
