<svg width="32" height="31" viewBox="0 0 32 31" fill="none" xmlns="http://www.w3.org/2000/svg">
<path d="M31.6176 0.937582L21.3023 30.4047C21.2431 30.576 21.0802 30.6903 20.8983 30.6924L16.3055 30.703C14.5369 30.7072 12.9482 29.6241 12.305 27.9761L3.53619 5.48595L1.0716 4.88092C0.919283 4.84284 0.811396 4.70745 0.811396 4.5509L0.783893 1.23587C0.781777 1.00528 0.961593 0.81488 1.19007 0.804303L7.8582 0.467935C9.10001 0.40447 10.2276 1.18721 10.6084 2.36979L17.2998 23.2881L24.0483 0.912196C24.1012 0.736608 24.2598 0.613907 24.4439 0.607561L31.203 0.366388C31.4992 0.357926 31.7171 0.654102 31.6176 0.937582Z" fill="white"/>
</svg>
